# xmcd
#
# Track frame offsets:
#	150
#	14031
#	26488
#	40438
#	51305
#	64215
#	84268
#	100859
#	115321
#	129555
#	141062
#	158905
#
# Disc length: 2342 seconds
#
# Revision: 0
# Processed by: cddbd v1.5.2PL0 Copyright (c) Steve Scherf et al.
# Submitted via: EZCDAudioConverter 2.1.7.1
#
DISCID=a409240c
DTITLE=Tom Zé - Tom Zé (1970)
DYEAR=1900
DGENRE=
TTITLE0=Lá Vem A Onda
TTITLE1=Guindaste À Rigor
TTITLE2=Distância
TTITLE3=Dulcinéia, Popular Brasileira
TTITLE4=Qualquer Bobagem
TTITLE5=O Riso E A Faca
TTITLE6=Jymmy Renda-Se
TTITLE7=Me Dá Me Dê Me Diz
TTITLE8=Passageiro
TTITLE9=Escolinha De Robôt
TTITLE10=Jeitinho Dela
TTITLE11=A Gravata
EXTD=
EXTT0=
EXTT1=
EXTT2=
EXTT3=
EXTT4=
EXTT5=
EXTT6=
EXTT7=
EXTT8=
EXTT9=
EXTT10=
EXTT11=
PLAYORDER=
